<?xml version="1.0" standalone="no"?>
<!DOCTYPE svg PUBLIC "-//W3C//DTD SVG 20010904//EN"
 "http://www.w3.org/TR/2001/REC-SVG-20010904/DTD/svg10.dtd">
<svg version="1.0" xmlns="http://www.w3.org/2000/svg"
 width="1131.000000pt" height="1280.000000pt" viewBox="0 0 1131.000000 1280.000000"
 preserveAspectRatio="xMidYMid meet">
<metadata>
Created by potrace 1.15, written by Peter Selinger 2001-2017
</metadata>
<g transform="translate(0.000000,1280.000000) scale(0.100000,-0.100000)"
fill="#000000" stroke="none">
<path d="M6352 12289 c-280 -36 -386 -156 -776 -881 -104 -194 -166 -325 -297
-636 -6 -15 -15 -22 -24 -19 -7 3 -29 1 -47 -4 -18 -5 -95 -21 -171 -35 -172
-30 -288 -61 -457 -123 -51 -18 -71 -19 -260 -14 -307 9 -525 -18 -747 -92
-243 -81 -511 -257 -766 -504 -327 -317 -557 -667 -703 -1069 -55 -150 -91
-300 -138 -577 -93 -534 -176 -825 -286 -999 -42 -67 -48 -73 -64 -60 -28 20
-102 28 -135 14 -69 -28 -60 -111 13 -131 23 -6 46 -13 53 -15 23 -6 34 -86
43 -326 9 -267 27 -386 80 -530 61 -167 165 -305 269 -355 47 -23 68 -28 131
-27 145 2 276 81 498 300 79 78 141 137 139 131 -3 -7 -26 -59 -52 -117 -26
-58 -51 -114 -55 -125 -5 -11 -22 -54 -38 -95 -96 -242 -184 -591 -217 -865
-14 -117 -14 -541 1 -660 61 -514 265 -1003 606 -1458 32 -42 71 -92 86 -110
16 -17 53 -59 82 -92 207 -232 515 -469 795 -608 299 -149 567 -236 889 -288
l148 -24 -6 -180 c-10 -243 -35 -663 -43 -693 -8 -34 -40 -42 -166 -42 -132 0
-157 -10 -157 -66 0 -21 8 -42 20 -54 18 -18 33 -20 147 -20 71 0 146 5 168
11 51 14 110 74 124 124 17 67 51 595 51 809 l0 91 307 0 c343 0 416 5 634 41
84 13 153 23 155 21 2 -2 8 -115 14 -253 13 -332 29 -587 40 -652 14 -77 38
-120 83 -150 39 -26 48 -27 190 -30 143 -4 150 -3 173 19 30 28 31 72 4 99
-18 18 -33 20 -145 20 -155 0 -159 3 -169 111 -14 156 -26 404 -33 635 l-6
240 64 18 c220 62 491 176 671 283 158 94 177 108 331 227 262 203 546 534
729 851 59 102 163 315 198 405 84 218 125 371 166 615 23 138 27 191 28 385
0 124 -2 262 -7 308 l-7 82 29 0 c51 0 67 26 135 220 222 639 251 766 211 925
-70 277 -315 498 -729 660 -146 57 -383 128 -407 122 -14 -4 -26 7 -49 45 -92
149 -163 578 -205 1238 -3 52 -10 140 -16 195 -62 636 -100 886 -163 1064 -9
24 -16 45 -16 47 0 3 46 -26 103 -64 304 -203 457 -271 712 -318 141 -26 551
-26 750 0 474 61 1039 202 1528 381 155 57 177 73 177 124 0 44 -15 60 -82 85
-164 60 -405 271 -918 801 -260 268 -548 463 -900 608 -451 186 -1017 261
-1403 187 -289 -56 -587 -208 -927 -475 -69 -54 -145 -107 -169 -117 -35 -16
-311 -81 -311 -74 0 1 71 72 158 158 296 292 731 690 907 828 188 147 196 158
180 232 -25 112 -283 237 -550 268 -100 11 -113 11 -203 -1z m-3052 -4602 c0
-38 -39 -243 -70 -372 -26 -104 -38 -133 -92 -220 -34 -55 -92 -150 -130 -212
-38 -62 -78 -115 -88 -118 -11 -3 -102 -93 -202 -198 -410 -431 -504 -506
-642 -515 -56 -3 -65 -1 -104 27 -49 36 -117 136 -156 229 -57 134 -86 330
-86 577 0 119 -11 241 -25 276 -4 11 14 18 78 32 364 75 1035 298 1387 462 63
29 118 53 123 54 4 1 7 -9 7 -22z m4671 -817 c451 -151 714 -359 774 -611 22
-95 19 -133 -24 -285 -37 -128 -185 -575 -216 -648 l-13 -31 -6 25 c-3 14 -17
77 -31 140 -70 325 -180 627 -347 960 -92 184 -115 226 -206 380 -65 108 -66
110 -58 110 4 0 60 -18 127 -40z"/>
</g>
</svg>
